# xmcd
#
# Track frame offsets:
# 150
# 17622
# 33619
# 46587
# 57201
# 69855
# 82459
# 98366
# 110595
# 123223
#
# Disc length: 1821 seconds
#
#
# Revision: 0
# Processed by: cddbd v1.4PL0 Copyright (c) Steve Scherf et al.
# Submitted via: FreeRIP 2.00 
#
DISCID=76071b0a
DTITLE=Merle Haggard - Hall Of Fame - 1994
DYEAR=1999
DGENRE=Country
TTITLE0=I Think I'll Just Stay Here And Drink
TTITLE1=It's Not Love (But It's Not Bad)
TTITLE2=Kentucky Gambler
TTITLE3=Someday We'll Look Back
TTITLE4=Silver Wings
TTITLE5=It's Been A Great Afternoon
TTITLE6=It's All In The Movies
TTITLE7=Everybody's Had The Blues
TTITLE8=I'm Always On A Mountain When I Fall
TTITLE9=The Farmer's Daughter
EXTD=King KSC 3812
EXTT0=
EXTT1=
EXTT2=
EXTT3=
EXTT4=
EXTT5=
EXTT6=
EXTT7=
EXTT8=
EXTT9=
PLAYORDER=
